<?xml version="1.0" standalone="no"?>
<!DOCTYPE svg PUBLIC "-//W3C//DTD SVG 20010904//EN"
 "http://www.w3.org/TR/2001/REC-SVG-20010904/DTD/svg10.dtd">
<svg version="1.0" xmlns="http://www.w3.org/2000/svg"
 width="500.000000pt" height="500.000000pt" viewBox="0 0 500.000000 500.000000"
 preserveAspectRatio="xMidYMid meet">

<g transform="translate(0.000000,500.000000) scale(0.100000,-0.100000)"
fill="#000000" stroke="none">
<path d="M2499 4366 c-24 -14 -114 -65 -199 -114 l-155 -90 -3 -219 c-2 -208
-1 -221 18 -246 11 -14 33 -32 48 -40 36 -18 258 -139 300 -163 l32 -19 156
80 c86 44 177 93 203 110 l46 30 3 200 c2 110 0 214 -3 232 -5 28 -18 39 -103
89 -53 31 -119 70 -147 87 -27 17 -73 43 -101 58 l-50 28 -45 -23z m126 -82
c58 -35 75 -50 70 -63 -5 -12 -3 -13 5 -5 9 9 31 1 88 -30 42 -23 77 -47 79
-52 5 -14 -132 -78 -150 -71 -10 4 -14 1 -11 -7 3 -8 -26 -28 -78 -55 l-83
-43 -77 44 c-60 35 -74 48 -65 57 9 9 7 10 -13 3 -19 -7 -34 -3 -75 21 -27 17
-63 37 -78 45 l-28 14 58 28 c32 16 69 36 83 45 24 15 28 14 103 -25 42 -23
77 -45 77 -49 0 -5 -24 -21 -54 -37 -30 -16 -53 -30 -51 -32 2 -2 31 11 64 28
l60 32 67 -32 c36 -17 68 -30 70 -27 3 2 -23 17 -56 33 -33 15 -60 32 -60 36
0 4 23 19 50 33 28 14 50 28 50 31 0 3 -27 -9 -61 -27 -55 -29 -63 -31 -82
-19 -12 8 -49 28 -81 46 l-59 32 41 26 c23 14 45 26 49 26 5 0 19 9 33 20 14
11 28 20 32 20 4 0 41 -21 83 -46z m-300 -246 c6 -5 -10 0 -35 11 -25 11 -53
21 -62 21 -10 0 -18 2 -18 4 0 2 -3 12 -7 22 -5 14 7 10 53 -16 32 -18 64 -37
69 -42z m565 46 c0 -8 -4 -13 -8 -10 -5 3 -38 -11 -75 -30 -37 -19 -67 -31
-67 -27 0 6 132 80 148 83 1 0 2 -7 2 -16z m-220 -104 c-35 -24 -54 -31 -30
-11 14 11 30 21 35 21 6 0 3 -5 -5 -10z m160 -125 c-7 -8 -18 -15 -24 -15 -6
0 -2 7 8 15 25 19 32 19 16 0z"/>
<path d="M3105 3444 c-132 -30 -168 -40 -215 -61 -128 -56 -238 -139 -302
-227 l-50 -68 -56 54 c-64 62 -157 132 -217 165 -23 12 -88 36 -146 52 -145
42 -207 41 -346 -5 -137 -45 -277 -108 -327 -147 -21 -17 -46 -31 -55 -32 -28
-4 -145 -63 -175 -89 -16 -14 -32 -23 -36 -21 -4 3 -13 -2 -20 -10 -7 -8 -17
-15 -22 -15 -6 0 -4 8 3 17 12 15 12 16 -5 10 -96 -36 -144 -163 -96 -256 23
-46 61 -71 155 -101 39 -13 232 -85 430 -160 198 -76 403 -151 455 -168 202
-65 341 -124 373 -160 18 -20 18 -21 -3 -32 -12 -7 -33 -10 -46 -7 -14 2 -27
0 -30 -4 -7 -12 -76 -41 -82 -35 -2 3 -15 -7 -29 -22 -14 -15 -20 -20 -14 -11
10 14 2 15 -67 13 -103 -4 -161 -13 -198 -30 -22 -11 -38 -12 -56 -5 -26 10
-58 -4 -85 -36 -9 -11 -20 -12 -50 -5 -51 13 -160 15 -200 3 -24 -7 -33 -6
-33 2 0 8 -3 7 -9 -2 -5 -8 -11 -9 -15 -3 -14 22 -146 -38 -171 -78 -13 -22
-43 -9 -54 23 -7 17 -19 45 -27 60 -8 16 -14 46 -14 67 0 63 -39 73 -180 46
-57 -11 -76 -12 -82 -3 -5 8 -8 6 -8 -6 0 -10 -4 -15 -10 -12 -5 3 -10 1 -10
-5 0 -6 -4 -9 -8 -6 -4 2 -8 -3 -9 -12 -1 -9 -6 -39 -11 -67 l-10 -50 -1 49
c-1 42 -3 47 -16 36 -13 -10 -15 -9 -15 9 0 12 5 31 11 43 19 36 3 29 -55 -24
-41 -38 -60 -63 -65 -88 -4 -19 -6 -201 -5 -403 2 -406 1 -397 67 -437 36 -22
75 -25 127 -10 19 6 90 19 156 30 67 11 154 32 194 47 69 25 77 26 142 15 38
-7 79 -12 92 -12 30 0 157 52 197 81 l31 22 39 -22 c21 -12 60 -24 86 -27 41
-5 59 0 119 29 63 31 76 34 115 26 94 -18 150 -11 228 27 56 27 81 35 105 30
93 -18 112 -18 166 4 48 19 72 22 195 21 146 -1 163 2 298 53 78 30 108 32
142 10 30 -19 54 -16 155 21 69 25 79 26 123 15 75 -19 119 -14 186 19 48 25
69 30 99 25 25 -4 58 1 101 16 61 20 65 20 110 4 58 -20 106 -9 183 42 29 20
71 44 93 54 22 10 48 27 58 38 18 20 18 22 -1 64 -10 24 -25 50 -33 59 -14 14
-20 25 -61 97 -27 48 -40 135 -26 170 6 15 14 36 18 47 4 11 17 44 29 74 28
72 28 101 -2 101 -73 0 -195 -23 -220 -41 -23 -16 -31 -18 -43 -8 -18 15 -149
4 -178 -15 -16 -10 -27 -10 -60 2 -53 18 -116 8 -183 -29 l-53 -28 0 85 c0 81
-1 87 -29 115 -25 25 -37 29 -84 29 -34 0 -74 -8 -103 -20 -26 -12 -57 -20
-68 -18 -19 3 -18 5 10 34 17 17 48 37 70 44 21 7 44 16 49 20 6 5 100 54 210
111 243 124 299 159 320 198 34 67 8 137 -63 167 -43 17 -126 80 -196 147 -49
47 -128 92 -383 221 -126 64 -175 80 -218 70z m259 -154 c119 -60 226 -110
236 -110 44 0 1 -48 -71 -78 -86 -37 -224 -80 -258 -80 -22 -1 -38 -8 -48 -22
-8 -11 -18 -18 -23 -15 -5 3 -11 1 -15 -5 -3 -5 -16 -9 -28 -8 -24 1 -97 -38
-97 -53 0 -5 -5 -9 -12 -9 -23 0 -137 -129 -189 -215 -29 -47 -56 -88 -60 -90
-3 -3 -9 18 -12 45 -3 27 -13 63 -22 81 -12 22 -13 29 -3 23 11 -6 11 -5 0 8
-7 9 -11 20 -10 24 4 14 -23 74 -34 74 -5 0 -6 5 -3 10 3 6 1 10 -4 10 -6 0
-11 7 -11 16 0 8 -4 12 -10 9 -5 -3 -10 -2 -10 4 0 5 -22 33 -50 63 -27 29
-52 61 -55 70 -4 11 18 45 65 102 103 122 192 182 335 224 61 18 89 24 156 30
9 1 113 -47 233 -108z m-1253 19 c151 -38 303 -148 426 -309 105 -137 204
-311 203 -358 -1 -16 -1 -16 -10 0 -6 9 -23 30 -38 46 -15 15 -38 42 -52 60
-25 32 -89 85 -75 62 4 -7 -14 -1 -41 13 -27 14 -71 33 -99 43 -27 9 -55 23
-61 31 -6 7 -20 13 -30 12 -18 0 -18 -1 1 -10 17 -8 16 -9 -6 -4 -14 2 -78 9
-142 15 -64 5 -138 15 -164 20 -66 15 -261 112 -256 128 3 8 -1 10 -11 6 -22
-8 -185 75 -203 103 -15 23 -10 43 10 43 7 0 64 21 127 46 63 25 135 52 160
59 70 20 167 17 261 -6z m-535 -230 c47 -28 83 -53 81 -55 -2 -2 -34 9 -70 26
-72 33 -81 35 -72 20 3 -5 -3 -10 -14 -10 -12 0 -21 5 -21 10 0 6 6 10 12 10
7 0 2 7 -10 16 -21 15 -22 34 -1 34 6 0 48 -23 95 -51z m2124 1 c11 -11 17
-20 13 -21 -5 0 -21 -3 -38 -5 -24 -4 -27 -2 -15 6 23 17 -21 3 -117 -36 -45
-19 -87 -34 -93 -34 -6 0 -27 -7 -48 -16 -20 -10 -48 -19 -61 -21 -33 -6 -133
-48 -211 -90 -42 -22 -56 -27 -40 -14 41 36 151 88 271 129 63 22 152 58 199
80 98 47 113 49 140 22z m-2198 -82 c59 -28 106 -54 103 -56 -2 -2 -33 9 -69
27 -35 17 -89 38 -120 48 -35 11 -51 20 -43 25 17 11 12 13 129 -44z m2266 5
c2 -8 -6 -13 -22 -13 -14 0 -65 -15 -114 -34 -48 -19 -152 -59 -232 -89 -80
-30 -154 -58 -164 -62 -13 -6 -17 -5 -13 2 7 11 42 26 227 93 63 24 153 60
200 81 87 39 110 43 118 22z m-2028 -23 c0 -5 -2 -10 -4 -10 -3 0 -8 5 -11 10
-3 6 -1 10 4 10 6 0 11 -4 11 -10z m-371 -61 c174 -66 318 -123 405 -161 38
-16 204 -76 370 -133 496 -170 454 -152 492 -212 18 -29 47 -59 63 -68 41 -21
114 -19 161 4 22 11 40 16 40 11 0 -12 -96 -50 -127 -50 -50 1 -110 36 -147
87 l-35 48 -218 73 c-252 85 -381 132 -753 272 -41 16 -113 43 -160 60 -188
71 -286 120 -238 120 6 0 72 -23 147 -51z m2541 18 c0 -16 -19 -26 -190 -99
-120 -51 -441 -208 -659 -323 -58 -30 -107 -52 -110 -50 -2 3 0 9 5 14 22 21
279 157 514 273 427 210 440 216 440 185z m-2265 -15 c-3 -3 -11 0 -18 7 -9
10 -8 11 6 5 10 -3 15 -9 12 -12z m271 -28 c18 -14 18 -14 -6 -3 -31 14 -36
19 -24 19 6 0 19 -7 30 -16z m139 -30 l70 -14 -75 6 c-41 3 -82 10 -90 15 -22
13 10 10 95 -7z m308 -45 c66 -19 192 -77 184 -86 -2 -2 -30 8 -61 22 -69 30
-182 62 -286 81 l-75 13 83 -5 c45 -3 115 -14 155 -25z m-153 -74 c106 -20
187 -43 238 -65 66 -29 47 -33 -28 -6 -36 13 -119 36 -185 50 -66 15 -124 29
-130 31 -25 9 37 4 105 -10z m642 -187 c-7 -7 -12 -8 -12 -2 0 6 3 14 7 17 3
4 9 5 12 2 2 -3 -1 -11 -7 -17z m-12 -70 c11 -12 19 -31 19 -42 -1 -17 -2 -18
-6 -3 -2 9 -9 17 -15 17 -6 0 -18 8 -27 19 -9 10 -25 21 -36 24 -13 3 -9 5 12
6 21 1 39 -6 53 -21z m680 -108 c5 -9 10 -161 12 -338 l3 -321 -50 -6 c-27 -4
-58 -9 -68 -12 -17 -4 -18 12 -17 309 1 172 4 328 7 346 4 26 11 34 37 40 39
11 64 5 76 -18z m-150 -89 c0 -79 5 -76 -119 -87 l-73 -7 6 -36 c3 -20 6 -48
6 -63 0 -24 3 -26 33 -23 17 2 56 6 85 9 l52 5 0 -74 0 -73 -67 -7 c-38 -3
-75 -7 -83 -8 -12 -2 -16 -25 -18 -124 l-3 -121 -47 -5 c-26 -3 -56 -6 -67 -8
-20 -4 -20 2 -23 324 -2 257 0 329 10 332 14 5 233 31 281 34 27 1 27 1 27
-68z m901 -24 c-5 -13 -29 -66 -53 -118 l-45 -95 32 -49 c17 -28 48 -76 68
-107 21 -32 36 -58 35 -59 -2 0 -29 -6 -60 -13 l-57 -12 -18 38 c-10 21 -21
38 -25 38 -5 0 -8 7 -8 15 0 8 -2 15 -4 15 -2 0 -11 3 -20 6 -12 5 -23 -10
-45 -59 -30 -67 -35 -71 -108 -82 -31 -5 -43 -3 -43 5 0 7 25 58 55 113 31 56
58 110 61 122 4 18 -39 88 -111 180 -26 33 -19 45 28 45 23 0 51 3 62 6 16 4
27 -7 54 -52 30 -50 36 -55 43 -38 4 10 16 40 27 66 21 49 28 53 108 57 30 1
32 -1 24 -22z m-438 -40 c48 -21 86 -83 98 -161 6 -37 8 -73 6 -80 -3 -8 -27
-16 -54 -20 -127 -18 -193 -31 -193 -38 0 -5 11 -20 25 -33 29 -30 67 -32 119
-5 22 10 43 17 47 14 5 -3 14 -23 20 -44 14 -47 8 -57 -56 -90 -50 -26 -107
-29 -170 -11 -52 14 -107 91 -115 160 -7 64 4 150 26 196 47 101 156 150 247
112z m-887 -106 c58 -36 69 -75 72 -277 l3 -181 -43 -6 c-24 -4 -53 -9 -65
-13 -21 -6 -21 -4 -25 159 -3 186 -7 197 -69 197 -65 0 -70 -17 -63 -206 8
-182 14 -169 -81 -180 l-53 -7 -1 245 -2 244 61 10 60 10 0 -30 1 -31 22 27
c47 57 125 74 183 39z m-359 -84 c3 -63 8 -57 -73 -87 -55 -20 -64 -51 -64
-214 l0 -146 -27 -5 c-16 -4 -45 -10 -65 -14 -20 -5 -40 -6 -43 -3 -3 3 -5
115 -5 248 l0 243 56 11 c62 13 71 9 76 -34 l3 -30 24 36 c26 37 62 57 96 55
17 -2 20 -10 22 -60z m-1397 -208 l0 -261 28 6 c15 3 69 9 120 13 l92 6 0 -66
c0 -36 -4 -68 -9 -72 -5 -3 -47 -10 -93 -15 -190 -23 -254 -31 -276 -37 l-22
-5 2 338 3 339 35 6 c19 4 54 7 78 8 l42 1 0 -261z m998 197 c15 -8 38 -33 50
-55 21 -37 25 -61 32 -219 4 -97 6 -180 4 -183 -2 -4 -25 -10 -50 -14 -26 -3
-53 -9 -60 -12 -9 -3 -14 2 -14 12 0 9 -3 15 -7 13 -82 -42 -107 -49 -146 -43
-59 10 -94 30 -112 65 -21 41 -19 118 5 157 23 39 120 91 185 100 53 7 60 14
44 44 -9 19 -18 21 -63 17 -28 -2 -67 -12 -85 -21 -19 -9 -35 -16 -36 -15 -1
2 -7 21 -14 43 -7 22 -14 45 -17 51 -2 6 26 25 63 42 76 36 172 43 221 18z
m-428 -65 c46 -22 88 -104 96 -188 l7 -62 -34 -5 c-109 -16 -198 -29 -224 -32
-16 -1 -31 -3 -33 -3 -1 -1 4 -14 13 -31 8 -16 27 -33 40 -36 36 -9 106 4 142
25 l31 19 17 -38 c24 -52 17 -70 -39 -104 -66 -41 -167 -49 -221 -17 -20 11
-42 21 -50 21 -8 0 -26 21 -41 46 -22 37 -28 62 -32 133 -5 99 5 143 49 207
57 84 181 113 279 65z"/>
<path d="M2825 3017 c-41 -43 -57 -77 -37 -77 11 0 67 61 82 88 21 42 1 37
-45 -11z"/>
<path d="M2248 2923 c7 -3 16 -2 19 1 4 3 -2 6 -13 5 -11 0 -14 -3 -6 -6z"/>
<path d="M3710 2110 c-11 -11 -20 -31 -20 -44 0 -26 7 -27 107 -7 l33 6 -20
33 c-24 38 -68 44 -100 12z"/>
<path d="M2064 1740 c-49 -22 -58 -33 -50 -65 8 -32 38 -40 80 -20 26 13 36
24 40 51 11 58 -2 65 -70 34z"/>
<path d="M1596 1844 c-14 -15 -26 -35 -26 -46 0 -17 6 -18 78 -12 42 4 78 8
80 9 6 5 -21 50 -37 62 -27 21 -66 15 -95 -13z"/>
</g>
</svg>
